<?xml version="1.0" encoding="utf-8"?>
<!-- Generator: Adobe Illustrator 26.3.1, SVG Export Plug-In . SVG Version: 6.00 Build 0)  -->
<svg version="1.1" id="Layer_2" xmlns="http://www.w3.org/2000/svg" xmlns:xlink="http://www.w3.org/1999/xlink" x="0px" y="0px"
	 viewBox="0 0 700 700" style="enable-background:new 0 0 700 700;" xml:space="preserve">
<style type="text/css">
	.st0{fill:none;}
</style>
<g id="Layer_1">
	<g>
		<g>
			<g>
				<path d="M407.9,376.4l17.7,6.3c0.4,0.1,0.7,0.2,1.1,0.3l19.4,3.9c0.8,0.4,5,2.1,6.7,2.3c1.2,0.1,4.5-0.4,9.3-1.3
					c1.7-0.3,3.3-0.6,4.5-0.8c3.9-0.6,19.1-2.2,19.2-2.2c0,0,0,0,0.1,0c0.7-0.1,16.5-2.8,31.5-16.2c8.7-7.8,34.4-31,34.7-31.3
					c0.5-0.4,0.6-1.2,0.1-1.8c-0.4-0.5-1.2-0.6-1.6-0.1c-0.3,0.2-26,23.5-34.7,31.2c-14.2,12.7-29.6,15.5-30.3,15.6
					c-1,0.1-15.3,1.6-19.3,2.2c-1.3,0.2-2.9,0.5-4.6,0.8c-3.2,0.6-7.6,1.4-8.7,1.2c-1.3-0.2-4.9-1.6-6.2-2.2l0,0
					c-0.1,0-0.1-0.1-0.2-0.1l-19.5-4c-0.3-0.1-0.5-0.1-0.8-0.2l-17.7-6.3c-0.8-0.3-1.3-1.2-1.2-2.1c0.1-0.5,0.3-0.9,0.7-1.2
					c0.4-0.3,0.8-0.4,1.3-0.3l19.8,4.4c0.1,0,0.1,0,0.2,0l9,0.4l7.5,6.1c0.5,0.4,1.2,0.3,1.6-0.2c0.4-0.5,0.3-1.3-0.2-1.7
					l-16.1-13.1v0c-0.5-0.5-0.7-1.2-0.4-1.9l5.2-13.7c0.5-1.3,1.6-2.2,2.9-2.4l4.4-0.8l-5.9,5.8c-1.4,1.4-1.7,3.7-0.6,5.4
					c-0.1,1.1,0,2.2,0.4,3.2c0.4,1,1.1,1.9,1.9,2.5l7.5,5.4l1.9,2.1h0c0.4,0.6,1.2,0.6,1.7,0.1c0.5-0.5,0.5-1.3,0-1.8L439,357.6
					c-0.3-0.3-0.4-0.7-0.4-1.2c0-0.4,0.2-0.9,0.5-1.2l8.9-8.7c0.7-0.7,1.7-1.1,2.7-1l3.5,0.2l-4.2,3.6h-0.2
					c-0.8,0.7-1.2,1.6-1.3,2.7c-0.7,0.8-1.2,1.9-1.1,3c0,1.1,0.4,2.2,1.2,3l6.8,7.2l1.1,1.8c0.2,0.3,0.4,0.5,0.7,0.6
					c0.3,0.1,0.6,0,0.9-0.2c0.3-0.2,0.5-0.5,0.5-0.8c0.1-0.3,0-0.7-0.1-1l-7.4-12.7c-0.3-0.5-0.2-1.2,0.3-1.6l7.2-6.2
					c0.4-0.3,0.8-0.4,1.2-0.1l4.4,2.3c0.3,0.1,0.5,0.4,0.6,0.7c0.1,0.3,0.1,0.7-0.1,1c-0.3,0.5-0.8,0.8-1.4,0.6l-3.1-0.9
					c-0.4-0.1-0.9,0-1.2,0.4l-1,1.2v0c-0.3,0.4-0.4,1-0.1,1.5l2.5,3.9c0.9,1.4,2.3,2.4,3.8,2.9l3.6,1.1h0c1.1,0.3,2.2,0.3,3.2,0.1
					l16.3-3.8c1.5-0.4,3.1-0.2,4.6,0.5c1.1,0.5,2.4,0.4,3.4-0.3c1.7-1.1,4.4-3.4,7.5-8.1c4.7-7,27.3-34.9,27.5-35.2
					c0.4-0.5,0.4-1.3-0.1-1.8c-0.5-0.5-1.2-0.4-1.7,0.1c-0.9,1.2-22.9,28.3-27.7,35.4c-3.1,4.6-5.6,6.6-6.8,7.4v0
					c-0.4,0.2-0.9,0.3-1.3,0.1c-1.9-0.8-4-1.1-6-0.6l-16.3,3.8v0c0,0.3-0.2,0.5-0.5,0.4l-5.2-1.5c-1-0.3-1.9-1-2.5-1.9l-1.9-2.9
					l2.2,0.6h0.3c1.6,0.5,3.3-0.4,4.1-2c0.4-0.9,0.5-1.9,0.2-2.9c-0.3-1-1-1.7-1.8-2.2l-4.4-2.3c-1.2-0.6-2.7-0.5-3.8,0.5l-0.2,0.2
					l-6.2-0.3c-0.1,0-0.2,0-0.3,0h0c-1.5,0-2.9,0.6-4,1.6l-8,1.4v0c-2.1,0.4-3.9,1.9-4.7,4l-5.3,13.9v-0.1c0,0,0.1,3.7,1.5,4.9
					l5.4,4.4l-5.6-0.2l-19.7-4.4c-1.1-0.2-2.2,0-3.1,0.6c-0.9,0.6-1.5,1.7-1.7,2.8C404.8,373.6,406,375.7,407.9,376.4L407.9,376.4z"
					/>
			</g>
			<path class="st0" d="M397.5,369.3"/>
		</g>
		<g>
			<g>
				<path d="M372.3,409.6l8.1,17c0.2,0.4,0.4,0.7,0.6,1l10.9,16.5c0.3,0.8,2,5,3.1,6.3c0.8,1,3.5,2.9,7.5,5.7c1.4,1,2.7,1.9,3.8,2.7
					c3.2,2.4,15,11.9,15.2,12c0,0,0,0,0,0c0.5,0.4,13.6,9.7,33.7,10.8c11.6,0.6,46.3,2.4,46.6,2.4c0.7,0,1.3-0.5,1.3-1.1
					c0.1-0.7-0.4-1.2-1.1-1.3c-0.3,0-35-1.8-46.6-2.4c-19-1-31.9-10-32.4-10.4c-0.8-0.6-12-9.7-15.2-12c-1-0.8-2.4-1.7-3.8-2.7
					c-2.7-1.9-6.4-4.4-7-5.2c-0.8-1-2.3-4.6-2.8-5.9l0,0c0-0.1-0.1-0.1-0.1-0.2l-11-16.6c-0.2-0.2-0.3-0.5-0.4-0.7l-8.1-17
					c-0.4-0.8-0.1-1.7,0.6-2.3c0.4-0.3,0.9-0.4,1.3-0.3c0.5,0.1,0.8,0.3,1.1,0.7l10.9,17.2c0,0.1,0.1,0.1,0.1,0.2l6.1,6.6l1,9.6
					c0.1,0.7,0.7,1.1,1.3,1c0.7-0.1,1.1-0.7,1.1-1.4l-2.2-20.7l0,0c0-0.7,0.4-1.4,1-1.7l13.4-6c1.3-0.6,2.7-0.4,3.7,0.3l3.7,2.6
					l-8.3-0.1c-2,0-3.8,1.4-4.2,3.4c-0.9,0.7-1.6,1.6-2,2.6c-0.4,1-0.5,2.1-0.4,3.1l1.5,9.1l-0.1,2.8l0,0c-0.1,0.7,0.4,1.3,1.1,1.3
					c0.7,0,1.2-0.6,1.3-1.2l0.9-17.1c0-0.4,0.2-0.8,0.5-1.1c0.3-0.3,0.7-0.5,1.2-0.5l12.4,0.1c1,0,2,0.4,2.7,1.2l2.3,2.6l-5.5-0.5
					l-0.1-0.1c-1-0.1-2,0.3-2.8,1c-1.1,0-2.1,0.5-2.9,1.3c-0.8,0.8-1.2,1.8-1.3,2.9l-0.3,9.9l-0.5,2c-0.1,0.3,0,0.6,0.1,0.9
					c0.2,0.3,0.4,0.5,0.7,0.5c0.3,0.1,0.6,0,0.9-0.2c0.3-0.2,0.5-0.5,0.6-0.8l3.7-14.2c0.2-0.6,0.7-1,1.3-1l9.5,0.7
					c0.5,0,0.9,0.3,1,0.8l1.5,4.7c0.1,0.3,0.1,0.6-0.1,0.9c-0.2,0.3-0.4,0.5-0.7,0.6c-0.6,0.2-1.1,0-1.4-0.5l-1.6-2.9
					c-0.2-0.4-0.7-0.6-1.1-0.6l-1.6,0.2l0,0c-0.5,0.1-1,0.5-1.1,1l-1,4.5c-0.4,1.6-0.1,3.3,0.6,4.7l1.8,3.3l0,0
					c0.5,1,1.3,1.8,2.2,2.4l14.1,8.8c1.3,0.8,2.3,2.1,2.9,3.5c0.4,1.1,1.4,2,2.6,2.2c2,0.4,5.5,0.7,11-0.4c8.3-1.6,44-5.4,44.4-5.4
					c0.7-0.1,1.2-0.7,1.2-1.3c0-0.7-0.6-1.2-1.3-1.1c-1.5,0.2-36.2,3.8-44.6,5.4c-5.4,1.1-8.6,0.7-10,0.4l0,0
					c-0.4-0.1-0.8-0.4-1-0.8c-0.7-1.9-2.1-3.6-3.8-4.6l-14.1-8.8l0,0c-0.2,0.2-0.5,0.2-0.6-0.1l-2.6-4.8c-0.5-0.9-0.6-2-0.4-3.1
					l0.8-3.4l1.1,2l0.2,0.2c0.8,1.5,2.6,2.1,4.3,1.5c0.9-0.3,1.7-1,2.2-1.9c0.5-0.9,0.6-1.9,0.3-2.8l-1.5-4.7
					c-0.4-1.3-1.6-2.2-3-2.4l-0.3,0l-4.2-4.6c-0.1-0.1-0.1-0.1-0.2-0.2l0,0c-1-1-2.4-1.6-3.9-1.7l-6.7-4.7l0,0
					c-1.8-1.2-4.1-1.4-6.2-0.5l-13.5,6l0.1-0.1c0,0-2.6,2.7-2.4,4.5l0.7,6.9l-3.8-4.1l-10.8-17.1c-0.6-0.9-1.5-1.5-2.6-1.7
					c-1.1-0.2-2.2,0.1-3.2,0.8C372.1,405.5,371.4,407.8,372.3,409.6L372.3,409.6z"/>
			</g>
			<path class="st0" d="M369.9,397.2"/>
		</g>
		<g>
			<g>
				<path d="M323.6,407.9l-6.3,17.7c-0.1,0.4-0.2,0.7-0.3,1.1l-3.9,19.4c-0.4,0.8-2.1,5-2.3,6.7c-0.1,1.2,0.4,4.5,1.3,9.3
					c0.3,1.7,0.6,3.3,0.8,4.5c0.6,3.9,2.2,19.1,2.2,19.2c0,0,0,0,0,0.1c0.1,0.7,2.8,16.5,16.2,31.5c7.8,8.7,31,34.4,31.3,34.7
					c0.4,0.5,1.2,0.6,1.8,0.1c0.5-0.4,0.6-1.2,0.1-1.6c-0.2-0.3-23.5-26-31.2-34.7c-12.7-14.2-15.5-29.6-15.6-30.3
					c-0.1-1-1.6-15.3-2.2-19.3c-0.2-1.3-0.5-2.9-0.8-4.6c-0.6-3.2-1.4-7.6-1.2-8.7c0.2-1.3,1.6-4.9,2.2-6.2l0,0
					c0-0.1,0.1-0.1,0.1-0.2l4-19.5c0.1-0.3,0.1-0.5,0.2-0.8l6.3-17.7c0.3-0.8,1.2-1.3,2.1-1.2c0.5,0.1,0.9,0.3,1.2,0.7
					c0.3,0.4,0.4,0.8,0.3,1.3l-4.4,19.8c0,0.1,0,0.1,0,0.2l-0.4,9l-6.1,7.5c-0.4,0.5-0.3,1.2,0.2,1.6c0.5,0.4,1.3,0.3,1.7-0.2
					l13.1-16.1h0c0.5-0.5,1.2-0.7,1.9-0.4l13.7,5.2c1.3,0.5,2.2,1.6,2.4,2.9l0.8,4.4l-5.8-5.9c-1.4-1.4-3.7-1.7-5.4-0.6
					c-1.1-0.1-2.2,0-3.2,0.4c-1,0.4-1.9,1.1-2.5,1.9l-5.4,7.5l-2.1,1.9v0c-0.6,0.4-0.6,1.2-0.1,1.7c0.5,0.5,1.3,0.5,1.8,0l12.7-11.4
					c0.3-0.3,0.7-0.4,1.2-0.4c0.4,0,0.9,0.2,1.2,0.5l8.7,8.9c0.7,0.7,1.1,1.7,1,2.7l-0.2,3.5l-3.6-4.2v-0.2
					c-0.7-0.8-1.6-1.2-2.7-1.3c-0.8-0.7-1.9-1.2-3-1.1c-1.1,0-2.2,0.4-3,1.2l-7.2,6.8l-1.8,1.1c-0.3,0.2-0.5,0.4-0.6,0.7
					c-0.1,0.3,0,0.6,0.2,0.9c0.2,0.3,0.5,0.5,0.8,0.5c0.3,0.1,0.7,0,1-0.1l12.7-7.4c0.5-0.3,1.2-0.2,1.6,0.3l6.2,7.2
					c0.3,0.4,0.4,0.8,0.1,1.2l-2.3,4.4c-0.1,0.3-0.4,0.5-0.7,0.6c-0.3,0.1-0.7,0.1-1-0.1c-0.5-0.3-0.8-0.8-0.6-1.4l0.9-3.1
					c0.1-0.4,0-0.9-0.4-1.2l-1.2-1h0c-0.4-0.3-1-0.4-1.5-0.1l-3.9,2.5c-1.4,0.9-2.4,2.3-2.9,3.8l-1.1,3.6v0
					c-0.3,1.1-0.3,2.2-0.1,3.2l3.8,16.3c0.4,1.5,0.2,3.1-0.5,4.6c-0.5,1.1-0.4,2.4,0.3,3.4c1.1,1.7,3.4,4.4,8.1,7.5
					c7,4.7,34.9,27.3,35.2,27.5c0.5,0.4,1.3,0.4,1.8-0.1c0.5-0.5,0.4-1.2-0.1-1.7c-1.2-0.9-28.3-22.9-35.4-27.7
					c-4.6-3.1-6.6-5.6-7.4-6.8h0c-0.2-0.4-0.3-0.9-0.1-1.3c0.8-1.9,1.1-4,0.6-6l-3.8-16.3h0c-0.3,0-0.5-0.2-0.4-0.5l1.5-5.2
					c0.3-1,1-1.9,1.9-2.5l2.9-1.9l-0.6,2.2v0.3c-0.5,1.6,0.4,3.3,2,4.1c0.9,0.4,1.9,0.5,2.9,0.2c1-0.3,1.7-1,2.2-1.8l2.3-4.4
					c0.6-1.2,0.5-2.7-0.5-3.8l-0.2-0.2l0.3-6.2c0-0.1,0-0.2,0-0.3v0c0-1.5-0.6-2.9-1.6-4l-1.4-8h0c-0.4-2.1-1.9-3.9-4-4.7l-13.9-5.3
					h0.1c0,0-3.7,0.1-4.9,1.5l-4.4,5.4l0.2-5.6l4.4-19.7c0.2-1.1,0-2.2-0.6-3.1c-0.6-0.9-1.7-1.5-2.8-1.7
					C326.4,404.8,324.3,406,323.6,407.9L323.6,407.9z"/>
			</g>
			<path class="st0" d="M330.7,397.5"/>
		</g>
		<g>
			<g>
				<path d="M290.4,372.3l-17,8.1c-0.4,0.2-0.7,0.4-1,0.6l-16.5,10.9c-0.8,0.3-5,2-6.3,3.1c-1,0.8-2.9,3.5-5.7,7.5
					c-1,1.4-1.9,2.7-2.7,3.8c-2.4,3.2-11.9,15-12,15.2c0,0,0,0,0,0c-0.4,0.5-9.7,13.6-10.8,33.7c-0.6,11.6-2.4,46.3-2.4,46.6
					c0,0.7,0.5,1.3,1.1,1.3c0.7,0.1,1.2-0.4,1.3-1.1c0-0.3,1.8-35,2.4-46.6c1-19,10-31.9,10.4-32.4c0.6-0.8,9.7-12,12-15.2
					c0.8-1,1.7-2.4,2.7-3.8c1.9-2.7,4.4-6.4,5.2-7c1-0.8,4.6-2.3,5.9-2.8l0,0c0.1,0,0.1-0.1,0.2-0.1l16.6-11
					c0.2-0.2,0.5-0.3,0.7-0.4l17-8.1c0.8-0.4,1.7-0.1,2.3,0.6c0.3,0.4,0.4,0.9,0.3,1.3c-0.1,0.5-0.3,0.8-0.7,1.1l-17.2,10.9
					c-0.1,0-0.1,0.1-0.2,0.1l-6.6,6.1l-9.6,1c-0.7,0.1-1.1,0.7-1,1.3c0.1,0.7,0.7,1.1,1.4,1.1l20.7-2.2l0,0c0.7,0,1.4,0.4,1.7,1
					l6,13.4c0.6,1.3,0.4,2.7-0.3,3.7l-2.6,3.7l0.1-8.3c0-2-1.4-3.8-3.4-4.2c-0.7-0.9-1.6-1.6-2.6-2c-1-0.4-2.1-0.5-3.1-0.4l-9.1,1.5
					l-2.8-0.1l0,0c-0.7-0.1-1.3,0.4-1.3,1.1c0,0.7,0.6,1.2,1.2,1.3l17.1,0.9c0.4,0,0.8,0.2,1.1,0.5c0.3,0.3,0.5,0.7,0.5,1.2
					l-0.1,12.4c0,1-0.4,2-1.2,2.7l-2.6,2.3l0.5-5.5l0.1-0.1c0.1-1-0.3-2-1-2.8c0-1.1-0.5-2.1-1.3-2.9c-0.8-0.8-1.8-1.2-2.9-1.3
					l-9.9-0.3l-2-0.5c-0.3-0.1-0.6,0-0.9,0.1c-0.3,0.2-0.5,0.4-0.5,0.7c-0.1,0.3,0,0.6,0.2,0.9c0.2,0.3,0.5,0.5,0.8,0.6l14.2,3.7
					c0.6,0.2,1,0.7,1,1.3l-0.7,9.5c0,0.5-0.3,0.9-0.8,1l-4.7,1.5c-0.3,0.1-0.6,0.1-0.9-0.1c-0.3-0.2-0.5-0.4-0.6-0.7
					c-0.2-0.6,0-1.1,0.5-1.4l2.9-1.6c0.4-0.2,0.6-0.7,0.6-1.1l-0.2-1.6l0,0c-0.1-0.5-0.5-1-1-1.1l-4.5-1c-1.6-0.4-3.3-0.1-4.7,0.6
					l-3.3,1.8l0,0c-1,0.5-1.8,1.3-2.4,2.2l-8.8,14.1c-0.8,1.3-2.1,2.3-3.5,2.9c-1.1,0.4-2,1.4-2.2,2.6c-0.4,2-0.7,5.5,0.4,11
					c1.6,8.3,5.4,44,5.4,44.4c0.1,0.7,0.7,1.2,1.3,1.2c0.7,0,1.2-0.6,1.1-1.3c-0.2-1.5-3.8-36.2-5.4-44.6c-1.1-5.4-0.7-8.6-0.4-10
					l0,0c0.1-0.4,0.4-0.8,0.8-1c1.9-0.7,3.6-2.1,4.6-3.8l8.8-14.1l0,0c-0.2-0.2-0.2-0.5,0.1-0.6l4.8-2.6c0.9-0.5,2-0.6,3.1-0.4
					l3.4,0.8l-2,1.1l-0.2,0.2c-1.5,0.8-2.1,2.6-1.5,4.3c0.3,0.9,1,1.7,1.9,2.2c0.9,0.5,1.9,0.6,2.8,0.3l4.7-1.5
					c1.3-0.4,2.2-1.6,2.4-3l0-0.3l4.6-4.2c0.1-0.1,0.1-0.1,0.2-0.2l0,0c1-1,1.6-2.4,1.7-3.9l4.7-6.7l0,0c1.2-1.8,1.4-4.1,0.5-6.2
					l-6-13.5l0.1,0.1c0,0-2.7-2.6-4.5-2.4l-6.9,0.7l4.1-3.8l17.1-10.8c0.9-0.6,1.5-1.5,1.7-2.6c0.2-1.1-0.1-2.2-0.8-3.2
					C294.5,372.1,292.2,371.4,290.4,372.3L290.4,372.3z"/>
			</g>
			<path class="st0" d="M302.8,369.9"/>
		</g>
		<g>
			<g>
				<path d="M292.1,323.6l-17.7-6.3c-0.4-0.1-0.7-0.2-1.1-0.3l-19.4-3.9c-0.8-0.4-5-2.1-6.7-2.3c-1.2-0.1-4.5,0.4-9.3,1.3
					c-1.7,0.3-3.3,0.6-4.5,0.8c-3.9,0.6-19.1,2.2-19.2,2.2c0,0,0,0-0.1,0c-0.7,0.1-16.5,2.8-31.5,16.2c-8.7,7.8-34.4,31-34.7,31.3
					c-0.5,0.4-0.6,1.2-0.1,1.8c0.4,0.5,1.2,0.6,1.6,0.1c0.3-0.2,26-23.5,34.7-31.2c14.2-12.7,29.6-15.5,30.3-15.6
					c1-0.1,15.3-1.6,19.3-2.2c1.3-0.2,2.9-0.5,4.6-0.8c3.2-0.6,7.6-1.4,8.7-1.2c1.3,0.2,4.9,1.6,6.2,2.2l0,0c0.1,0,0.1,0.1,0.2,0.1
					l19.5,4c0.3,0.1,0.5,0.1,0.8,0.2l17.7,6.3c0.8,0.3,1.3,1.2,1.2,2.1c-0.1,0.5-0.3,0.9-0.7,1.2c-0.4,0.3-0.8,0.4-1.3,0.3
					l-19.8-4.4c-0.1,0-0.1,0-0.2,0l-9-0.4l-7.5-6.1c-0.5-0.4-1.2-0.3-1.6,0.2c-0.4,0.5-0.3,1.3,0.2,1.7l16.1,13.1v0
					c0.5,0.5,0.7,1.2,0.4,1.9l-5.2,13.7c-0.5,1.3-1.6,2.2-2.9,2.4l-4.4,0.8l5.9-5.8c1.4-1.4,1.7-3.7,0.6-5.4c0.1-1.1,0-2.2-0.4-3.2
					c-0.4-1-1.1-1.9-1.9-2.5l-7.5-5.4l-1.9-2.1h0c-0.4-0.6-1.2-0.6-1.7-0.1c-0.5,0.5-0.5,1.3,0,1.8l11.4,12.7
					c0.3,0.3,0.4,0.7,0.4,1.2c0,0.4-0.2,0.9-0.5,1.2l-8.9,8.7c-0.7,0.7-1.7,1.1-2.7,1l-3.5-0.2l4.2-3.6h0.2c0.8-0.7,1.2-1.6,1.3-2.7
					c0.7-0.8,1.2-1.9,1.1-3c0-1.1-0.4-2.2-1.2-3l-6.8-7.2l-1.1-1.8c-0.2-0.3-0.4-0.5-0.7-0.6c-0.3-0.1-0.6,0-0.9,0.2
					c-0.3,0.2-0.5,0.5-0.5,0.8c-0.1,0.3,0,0.7,0.1,1l7.4,12.7c0.3,0.5,0.2,1.2-0.3,1.6l-7.2,6.2c-0.4,0.3-0.8,0.4-1.2,0.1l-4.4-2.3
					c-0.3-0.1-0.5-0.4-0.6-0.7c-0.1-0.3-0.1-0.7,0.1-1c0.3-0.5,0.8-0.8,1.4-0.6l3.1,0.9c0.4,0.1,0.9,0,1.2-0.4l1-1.2v0
					c0.3-0.4,0.4-1,0.1-1.5l-2.5-3.9c-0.9-1.4-2.3-2.4-3.8-2.9l-3.6-1.1h0c-1.1-0.3-2.2-0.3-3.2-0.1l-16.3,3.8
					c-1.5,0.4-3.1,0.2-4.6-0.5c-1.1-0.5-2.4-0.4-3.4,0.3c-1.7,1.1-4.4,3.4-7.5,8.1c-4.7,7-27.3,34.9-27.5,35.2
					c-0.4,0.5-0.4,1.3,0.1,1.8c0.5,0.5,1.2,0.4,1.7-0.1c0.9-1.2,22.9-28.3,27.7-35.4c3.1-4.6,5.6-6.6,6.8-7.4v0
					c0.4-0.2,0.9-0.3,1.3-0.1c1.9,0.8,4,1.1,6,0.6l16.3-3.8v0c0-0.3,0.2-0.5,0.5-0.4l5.2,1.5c1,0.3,1.9,1,2.5,1.9l1.9,2.9l-2.2-0.6
					h-0.3c-1.6-0.5-3.3,0.4-4.1,2c-0.4,0.9-0.5,1.9-0.2,2.9c0.3,1,1,1.7,1.8,2.2l4.4,2.3c1.2,0.6,2.7,0.5,3.8-0.5l0.2-0.2l6.2,0.3
					c0.1,0,0.2,0,0.3,0h0c1.5,0,2.9-0.6,4-1.6l8-1.4v0c2.1-0.4,3.9-1.9,4.7-4l5.3-13.9v0.1c0,0-0.1-3.7-1.5-4.9l-5.4-4.4l5.6,0.2
					l19.7,4.4c1.1,0.2,2.2,0,3.1-0.6c0.9-0.6,1.5-1.7,1.7-2.8C295.2,326.4,294,324.3,292.1,323.6L292.1,323.6z"/>
			</g>
			<path class="st0" d="M302.5,330.7"/>
		</g>
		<g>
			<g>
				<path d="M327.7,290.4l-8.1-17c-0.2-0.4-0.4-0.7-0.6-1l-10.9-16.5c-0.3-0.8-2-5-3.1-6.3c-0.8-1-3.5-2.9-7.5-5.7
					c-1.4-1-2.7-1.9-3.8-2.7c-3.2-2.4-15-11.9-15.2-12c0,0,0,0,0,0c-0.5-0.4-13.6-9.7-33.7-10.8c-11.6-0.6-46.3-2.4-46.6-2.4
					c-0.7,0-1.3,0.5-1.3,1.1c-0.1,0.7,0.4,1.2,1.1,1.3c0.3,0,35,1.8,46.6,2.4c19,1,31.9,10,32.4,10.4c0.8,0.6,12,9.7,15.2,12
					c1,0.8,2.4,1.7,3.8,2.7c2.7,1.9,6.4,4.4,7,5.2c0.8,1,2.3,4.6,2.8,5.9l0,0c0,0.1,0.1,0.1,0.1,0.2l11,16.6
					c0.2,0.2,0.3,0.5,0.4,0.7l8.1,17c0.4,0.8,0.1,1.7-0.6,2.3c-0.4,0.3-0.9,0.4-1.3,0.3c-0.5-0.1-0.8-0.3-1.1-0.7l-10.9-17.2
					c0-0.1-0.1-0.1-0.1-0.2l-6.1-6.6l-1-9.6c-0.1-0.7-0.7-1.1-1.3-1c-0.7,0.1-1.1,0.7-1.1,1.4l2.2,20.7l0,0c0,0.7-0.4,1.4-1,1.7
					l-13.4,6c-1.3,0.6-2.7,0.4-3.7-0.3l-3.7-2.6l8.3,0.1c2,0,3.8-1.4,4.2-3.4c0.9-0.7,1.6-1.6,2-2.6c0.4-1,0.5-2.1,0.4-3.1l-1.5-9.1
					l0.1-2.8l0,0c0.1-0.7-0.4-1.3-1.1-1.3c-0.7,0-1.2,0.6-1.3,1.2l-0.9,17.1c0,0.4-0.2,0.8-0.5,1.1c-0.3,0.3-0.7,0.5-1.2,0.5
					l-12.4-0.1c-1,0-2-0.4-2.7-1.2l-2.3-2.6l5.5,0.5l0.1,0.1c1,0.1,2-0.3,2.8-1c1.1,0,2.1-0.5,2.9-1.3c0.8-0.8,1.2-1.8,1.3-2.9
					l0.3-9.9l0.5-2c0.1-0.3,0-0.6-0.1-0.9c-0.2-0.3-0.4-0.5-0.7-0.5c-0.3-0.1-0.6,0-0.9,0.2c-0.3,0.2-0.5,0.5-0.6,0.8l-3.7,14.2
					c-0.2,0.6-0.7,1-1.3,1l-9.5-0.7c-0.5,0-0.9-0.3-1-0.8l-1.5-4.7c-0.1-0.3-0.1-0.6,0.1-0.9c0.2-0.3,0.4-0.5,0.7-0.6
					c0.6-0.2,1.1,0,1.4,0.5l1.6,2.9c0.2,0.4,0.7,0.6,1.1,0.6l1.6-0.2l0,0c0.5-0.1,1-0.5,1.1-1l1-4.5c0.4-1.6,0.1-3.3-0.6-4.7
					l-1.8-3.3l0,0c-0.5-1-1.3-1.8-2.2-2.4l-14.1-8.8c-1.3-0.8-2.3-2.1-2.9-3.5c-0.4-1.1-1.4-2-2.6-2.2c-2-0.4-5.5-0.7-11,0.4
					c-8.3,1.6-44,5.4-44.4,5.4c-0.7,0.1-1.2,0.7-1.2,1.3c0,0.7,0.6,1.2,1.3,1.1c1.5-0.2,36.2-3.8,44.6-5.4c5.4-1.1,8.6-0.7,10-0.4
					l0,0c0.4,0.1,0.8,0.4,1,0.8c0.7,1.9,2.1,3.6,3.8,4.6l14.1,8.8l0,0c0.2-0.2,0.5-0.2,0.6,0.1l2.6,4.8c0.5,0.9,0.6,2,0.4,3.1
					l-0.8,3.4l-1.1-2l-0.2-0.2c-0.8-1.5-2.6-2.1-4.3-1.5c-0.9,0.3-1.7,1-2.2,1.9c-0.5,0.9-0.6,1.9-0.3,2.8l1.5,4.7
					c0.4,1.3,1.6,2.2,3,2.4l0.3,0l4.2,4.6c0.1,0.1,0.1,0.1,0.2,0.2l0,0c1,1,2.4,1.6,3.9,1.7l6.7,4.7l0,0c1.8,1.2,4.1,1.4,6.2,0.5
					l13.5-6l-0.1,0.1c0,0,2.6-2.7,2.4-4.5l-0.7-6.9l3.8,4.1l10.8,17.1c0.6,0.9,1.5,1.5,2.6,1.7c1.1,0.2,2.2-0.1,3.2-0.8
					C327.9,294.5,328.6,292.2,327.7,290.4L327.7,290.4z"/>
			</g>
			<path class="st0" d="M330.1,302.8"/>
		</g>
		<g>
			<g>
				<path d="M376.4,292.1l6.3-17.7c0.1-0.4,0.2-0.7,0.3-1.1l3.9-19.4c0.4-0.8,2.1-5,2.3-6.7c0.1-1.2-0.4-4.5-1.3-9.3
					c-0.3-1.7-0.6-3.3-0.8-4.5c-0.6-3.9-2.2-19.1-2.2-19.2c0,0,0,0,0-0.1c-0.1-0.7-2.8-16.5-16.2-31.5c-7.8-8.7-31-34.4-31.3-34.7
					c-0.4-0.5-1.2-0.6-1.8-0.1c-0.5,0.4-0.6,1.2-0.1,1.6c0.2,0.3,23.5,26,31.2,34.7c12.7,14.2,15.5,29.6,15.6,30.3
					c0.1,1,1.6,15.3,2.2,19.3c0.2,1.3,0.5,2.9,0.8,4.6c0.6,3.2,1.4,7.6,1.2,8.7c-0.2,1.3-1.6,4.9-2.2,6.2l0,0c0,0.1-0.1,0.1-0.1,0.2
					l-4,19.5c-0.1,0.3-0.1,0.5-0.2,0.8l-6.3,17.7c-0.3,0.8-1.2,1.3-2.1,1.2c-0.5-0.1-0.9-0.3-1.2-0.7c-0.3-0.4-0.4-0.8-0.3-1.3
					l4.4-19.8c0-0.1,0-0.1,0-0.2l0.4-9l6.1-7.5c0.4-0.5,0.3-1.2-0.2-1.6c-0.5-0.4-1.3-0.3-1.7,0.2l-13.1,16.1h0
					c-0.5,0.5-1.2,0.7-1.9,0.4l-13.7-5.2c-1.3-0.5-2.2-1.6-2.4-2.9l-0.8-4.4l5.8,5.9c1.4,1.4,3.7,1.7,5.4,0.6c1.1,0.1,2.2,0,3.2-0.4
					c1-0.4,1.9-1.1,2.5-1.9l5.4-7.5l2.1-1.9v0c0.6-0.4,0.6-1.2,0.1-1.7c-0.5-0.5-1.3-0.5-1.8,0L357.6,261c-0.3,0.3-0.7,0.4-1.2,0.4
					c-0.4,0-0.9-0.2-1.2-0.5l-8.7-8.9c-0.7-0.7-1.1-1.7-1-2.7l0.2-3.5l3.6,4.2v0.2c0.7,0.8,1.6,1.2,2.7,1.3c0.8,0.7,1.9,1.2,3,1.1
					c1.1,0,2.2-0.4,3-1.2l7.2-6.8l1.8-1.1c0.3-0.2,0.5-0.4,0.6-0.7c0.1-0.3,0-0.6-0.2-0.9c-0.2-0.3-0.5-0.5-0.8-0.5
					c-0.3-0.1-0.7,0-1,0.1l-12.7,7.4c-0.5,0.3-1.2,0.2-1.6-0.3l-6.2-7.2c-0.3-0.4-0.4-0.8-0.1-1.2l2.3-4.4c0.1-0.3,0.4-0.5,0.7-0.6
					c0.3-0.1,0.7-0.1,1,0.1c0.5,0.3,0.8,0.8,0.6,1.4l-0.9,3.1c-0.1,0.4,0,0.9,0.4,1.2l1.2,1h0c0.4,0.3,1,0.4,1.5,0.1l3.9-2.5
					c1.4-0.9,2.4-2.3,2.9-3.8l1.1-3.6v0c0.3-1.1,0.3-2.2,0.1-3.2l-3.8-16.3c-0.4-1.5-0.2-3.1,0.5-4.6c0.5-1.1,0.4-2.4-0.3-3.4
					c-1.1-1.7-3.4-4.4-8.1-7.5c-7-4.7-34.9-27.3-35.2-27.5c-0.5-0.4-1.3-0.4-1.8,0.1c-0.5,0.5-0.4,1.2,0.1,1.7
					c1.2,0.9,28.3,22.9,35.4,27.7c4.6,3.1,6.6,5.6,7.4,6.8h0c0.2,0.4,0.3,0.9,0.1,1.3c-0.8,1.9-1.1,4-0.6,6l3.8,16.3h0
					c0.3,0,0.5,0.2,0.4,0.5l-1.5,5.2c-0.3,1-1,1.9-1.9,2.5l-2.9,1.9l0.6-2.2v-0.3c0.5-1.6-0.4-3.3-2-4.1c-0.9-0.4-1.9-0.5-2.9-0.2
					c-1,0.3-1.7,1-2.2,1.8l-2.3,4.4c-0.6,1.2-0.5,2.7,0.5,3.8l0.2,0.2l-0.3,6.2c0,0.1,0,0.2,0,0.3v0c0,1.5,0.6,2.9,1.6,4l1.4,8h0
					c0.4,2.1,1.9,3.9,4,4.7l13.9,5.3h-0.1c0,0,3.7-0.1,4.9-1.5l4.4-5.4l-0.2,5.6l-4.4,19.7c-0.2,1.1,0,2.2,0.6,3.1
					c0.6,0.9,1.7,1.5,2.8,1.7C373.6,295.2,375.7,294,376.4,292.1L376.4,292.1z"/>
			</g>
			<path class="st0" d="M369.3,302.5"/>
		</g>
		<g>
			<g>
				<path d="M409.6,327.7l17-8.1c0.4-0.2,0.7-0.4,1-0.6l16.5-10.9c0.8-0.3,5-2,6.3-3.1c1-0.8,2.9-3.5,5.7-7.5c1-1.4,1.9-2.7,2.7-3.8
					c2.4-3.2,11.9-15,12-15.2c0,0,0,0,0,0c0.4-0.5,9.7-13.6,10.8-33.7c0.6-11.6,2.4-46.3,2.4-46.6c0-0.7-0.5-1.3-1.1-1.3
					c-0.7-0.1-1.2,0.4-1.3,1.1c0,0.3-1.8,35-2.4,46.6c-1,19-10,31.9-10.4,32.4c-0.6,0.8-9.7,12-12,15.2c-0.8,1-1.7,2.4-2.7,3.8
					c-1.9,2.7-4.4,6.4-5.2,7c-1,0.8-4.6,2.3-5.9,2.8l0,0c-0.1,0-0.1,0.1-0.2,0.1l-16.6,11c-0.2,0.2-0.5,0.3-0.7,0.4l-17,8.1
					c-0.8,0.4-1.7,0.1-2.3-0.6c-0.3-0.4-0.4-0.9-0.3-1.3c0.1-0.5,0.3-0.8,0.7-1.1l17.2-10.9c0.1,0,0.1-0.1,0.2-0.1l6.6-6.1l9.6-1
					c0.7-0.1,1.1-0.7,1-1.3c-0.1-0.7-0.7-1.1-1.4-1.1l-20.7,2.2l0,0c-0.7,0-1.4-0.4-1.7-1l-6-13.4c-0.6-1.3-0.4-2.7,0.3-3.7l2.6-3.7
					l-0.1,8.3c0,2,1.4,3.8,3.4,4.2c0.7,0.9,1.6,1.6,2.6,2c1,0.4,2.1,0.5,3.1,0.4l9.1-1.5l2.8,0.1l0,0c0.7,0.1,1.3-0.4,1.3-1.1
					c0-0.7-0.6-1.2-1.2-1.3l-17.1-0.9c-0.4,0-0.8-0.2-1.1-0.5c-0.3-0.3-0.5-0.7-0.5-1.2l0.1-12.4c0-1,0.4-2,1.2-2.7l2.6-2.3
					l-0.5,5.5l-0.1,0.1c-0.1,1,0.3,2,1,2.8c0,1.1,0.5,2.1,1.3,2.9c0.8,0.8,1.8,1.2,2.9,1.3l9.9,0.3l2,0.5c0.3,0.1,0.6,0,0.9-0.1
					c0.3-0.2,0.5-0.4,0.5-0.7c0.1-0.3,0-0.6-0.2-0.9c-0.2-0.3-0.5-0.5-0.8-0.6l-14.2-3.7c-0.6-0.2-1-0.7-1-1.3l0.7-9.5
					c0-0.5,0.3-0.9,0.8-1l4.7-1.5c0.3-0.1,0.6-0.1,0.9,0.1c0.3,0.2,0.5,0.4,0.6,0.7c0.2,0.6,0,1.1-0.5,1.4l-2.9,1.6
					c-0.4,0.2-0.6,0.7-0.6,1.1l0.2,1.6l0,0c0.1,0.5,0.5,1,1,1.1l4.5,1c1.6,0.4,3.3,0.1,4.7-0.6l3.3-1.8l0,0c1-0.5,1.8-1.3,2.4-2.2
					l8.8-14.1c0.8-1.3,2.1-2.3,3.5-2.9c1.1-0.4,2-1.4,2.2-2.6c0.4-2,0.7-5.5-0.4-11c-1.6-8.3-5.4-44-5.4-44.4
					c-0.1-0.7-0.7-1.2-1.3-1.2c-0.7,0-1.2,0.6-1.1,1.3c0.2,1.5,3.8,36.2,5.4,44.6c1.1,5.4,0.7,8.6,0.4,10l0,0
					c-0.1,0.4-0.4,0.8-0.8,1c-1.9,0.7-3.6,2.1-4.6,3.8l-8.8,14.1l0,0c0.2,0.2,0.2,0.5-0.1,0.6l-4.8,2.6c-0.9,0.5-2,0.6-3.1,0.4
					l-3.4-0.8l2-1.1l0.2-0.2c1.5-0.8,2.1-2.6,1.5-4.3c-0.3-0.9-1-1.7-1.9-2.2c-0.9-0.5-1.9-0.6-2.8-0.3l-4.7,1.5
					c-1.3,0.4-2.2,1.6-2.4,3l0,0.3l-4.6,4.2c-0.1,0.1-0.1,0.1-0.2,0.2l0,0c-1,1-1.6,2.4-1.7,3.9l-4.7,6.7l0,0
					c-1.2,1.8-1.4,4.1-0.5,6.2l6,13.5l-0.1-0.1c0,0,2.7,2.6,4.5,2.4l6.9-0.7l-4.1,3.8l-17.1,10.8c-0.9,0.6-1.5,1.5-1.7,2.6
					c-0.2,1.1,0.1,2.2,0.8,3.2C405.5,327.9,407.8,328.6,409.6,327.7L409.6,327.7z"/>
			</g>
			<path class="st0" d="M397.2,330.1"/>
		</g>
	</g>
</g>
</svg>
