<?xml version="1.0" encoding="utf-8"?>
<!-- Generator: Adobe Illustrator 26.3.1, SVG Export Plug-In . SVG Version: 6.00 Build 0)  -->
<svg version="1.1" id="Layer_1" xmlns="http://www.w3.org/2000/svg" xmlns:xlink="http://www.w3.org/1999/xlink" x="0px" y="0px"
	 viewBox="0 0 700 700" style="enable-background:new 0 0 700 700;" xml:space="preserve">
<g>
	<path d="M539.6,230.5L483,211.7c-1.2-0.4-2.4-0.7-3.6-0.9l-62-11.8c-2.7-1.1-15.8-6.2-21.3-6.8c-4-0.4-14.3,1.2-29.7,3.8
		c-5.4,0.9-10.5,1.8-14.5,2.3c-12.6,1.8-60.8,6.6-61.3,6.7c-0.1,0-0.1,0-0.2,0c-2.1,0.3-52.7,8.2-100.4,48.4
		c-27.7,23.3-109.9,92.9-110.7,93.6c-1.6,1.3-1.8,3.7-0.4,5.3c1.3,1.6,3.7,1.8,5.3,0.4c0.8-0.7,83.1-70.2,110.7-93.5
		c45.2-38.1,94.4-46.4,96.6-46.7c3.1-0.3,49-4.9,61.5-6.7c4-0.6,9.2-1.4,14.6-2.4c10.3-1.7,24.4-4.1,27.6-3.7
		c4.1,0.5,15.6,4.8,19.7,6.4l0,0c0.2,0.1,0.5,0.2,0.7,0.2l62.3,11.9c0.9,0.2,1.7,0.4,2.6,0.7l56.6,18.9c2.6,0.9,4.1,3.5,3.7,6.2
		c-0.3,1.4-1.1,2.7-2.3,3.5c-1.2,0.8-2.7,1.1-4.1,0.8l-63.3-13.3c-0.2,0-0.4-0.1-0.6-0.1l-28.8-1.1L418,215.4
		c-1.6-1.2-4-0.9-5.2,0.7s-0.9,4,0.7,5.2l51.4,39.2v0c1.8,1.3,2.4,3.7,1.6,5.8l-16.7,41.1c-1.6,3.8-5,6.6-9.1,7.2l-14.2,2.3
		l18.9-17.4c4.5-4.2,5.3-11,1.8-16.1c0.5-3.3,0-6.6-1.4-9.6c-1.3-3-3.5-5.6-6.2-7.4l-24-16.2l-6.2-6.4h0c-1.4-1.5-3.8-1.5-5.3-0.1
		c-1.5,1.4-1.5,3.8-0.1,5.3l36.5,38c0.9,1,1.4,2.2,1.4,3.6c0,1.3-0.6,2.6-1.6,3.5L412,320.1c-2.3,2.2-5.4,3.3-8.6,3.1l-11.1-0.5
		l13.5-10.9h0c2.4-2,3.9-4.8,4.1-7.9c2.3-2.3,3.6-5.5,3.6-8.8c0-3.3-1.3-6.5-3.7-8.8L388.2,265l-3.3-5.4c-0.5-0.8-1.4-1.4-2.3-1.7
		c-1-0.2-2-0.1-2.8,0.5c-0.8,0.5-1.4,1.4-1.7,2.3c-0.2,1-0.1,2,0.5,2.8l23.3,37.6c1,1.6,0.6,3.7-0.8,4.8l-22.8,18.4
		c-1.1,0.9-2.7,1.1-4,0.4l-13.9-6.8c-0.9-0.4-1.6-1.2-1.9-2.1c-0.3-0.9-0.2-2,0.2-2.9c0.8-1.6,2.6-2.4,4.3-1.9l9.9,2.7
		c1.4,0.4,2.9-0.1,3.8-1.2l3-3.7v0c1.1-1.3,1.2-3.1,0.2-4.5l-7.9-11.6c-2.9-4.2-7.1-7.3-12-8.6l-11.4-3.2h0c-3.4-0.9-6.9-1-10.3-0.3
		l-51.6,11.2c-4.9,1.1-9.9,0.6-14.5-1.3c-3.5-1.5-7.5-1.2-10.8,0.8c-5.4,3.3-14,10.1-23.9,24c-14.9,20.9-86.7,104.1-87.4,105
		c-1.3,1.6-1.2,3.9,0.4,5.3c1.6,1.3,3.9,1.2,5.3-0.4c3-3.4,72.7-84.3,87.8-105.5c9.7-13.6,17.8-19.6,21.7-21.9v0
		c1.2-0.7,2.7-0.8,4-0.3c6,2.5,12.6,3.1,19,1.8l51.6-11.2v0c2.2-0.5,4.5-0.4,6.7,0.2l11.4,3.2c3.2,0.9,6,2.9,7.8,5.6l6,8.8l-7-1.9h0
		c-5.1-1.4-10.5,1.1-12.9,5.8c-1.3,2.7-1.5,5.8-0.6,8.6c1,2.8,3,5.2,5.7,6.5l13.9,6.8c3.9,1.9,8.5,1.4,11.9-1.4l0.6-0.5l19.5,0.9
		c0.3,0,0.6,0,0.9,0h0c4.6,0,9-1.7,12.6-4.6l25.3-4.1v0c6.7-1.1,12.3-5.6,14.8-11.8l16.7-41.1v0c2.1-5.2,0.5-11.1-4-14.5l-17.2-13.1
		l17.9,0.7l63,13.2c3.4,0.7,6.9,0,9.8-1.9c2.9-1.9,4.8-4.9,5.4-8.3C549.3,238.8,545.7,232.6,539.6,230.5L539.6,230.5z"/>
</g>
</svg>
